ply
format ascii 1.0
comment VCGLIB generated
element vertex 1020
property float x
property float y
property float z
element face 1174
property list uchar int vertex_indices
end_header
4.672803 0.067976 3.373773 
-3.942106 0.067976 3.373767 
-3.937309 0.074101 3.358382 
4.668007 0.074101 3.358387 
-3.942106 0.051657 3.212283 
4.672803 0.051657 3.212283 
4.668007 0.068981 3.237047 
-3.937309 0.068981 3.237047 
4.672806 1.688547 -3.40624 
-3.942102 1.688547 -3.40624 
-3.942102 1.692177 -3.37584 
4.672806 1.692177 -3.375817 
4.672803 0.87129 3.608911 
-3.942106 0.87129 3.608905 
-3.942106 0.702145 3.606741 
4.672803 0.702134 3.606747 
-3.942106 0.539073 3.60182 
4.672803 0.539073 3.601826 
4.672803 1.480257 3.591184 
-3.942106 1.480257 3.591178 
-3.942106 1.354432 3.600598 
4.672803 1.354432 3.600604 
-3.942106 1.203521 3.60182 
4.672803 1.203521 3.601826 
-3.942106 1.040449 3.606741 
4.672803 1.040449 3.606747 
-3.942106 0.262338 3.591178 
4.672803 0.262338 3.591184 
4.672803 0.388164 3.600604 
-3.942106 0.388164 3.600598 
-3.942106 0.062594 3.39212 
4.672803 0.062594 3.392126 
4.672803 0.078667 3.462863 
-3.942106 0.078667 3.462856 
4.672803 0.116114 3.521102 
-3.942106 0.116114 3.521096 
4.672803 1.680025 3.391988 
-3.942106 1.680025 3.391982 
-3.942106 1.663927 3.462856 
4.672803 1.663927 3.462863 
-3.942106 1.626482 3.521096 
4.672803 1.626482 3.521102 
4.672803 0.174488 3.564475 
-3.942106 0.174488 3.564469 
-3.942106 1.568096 3.564469 
4.672803 1.568096 3.564475 
-3.940206 1.575676 -3.404238 
4.670909 1.575676 -3.404215 
4.665218 1.572049 -3.367808 
-3.934516 1.572049 -3.367808 
4.665218 1.572049 -3.367808 
4.634872 1.572049 -3.335429 
-3.904169 1.572049 -3.335428 
-3.934516 1.572049 -3.367808 
-3.970556 0.137352 -3.40624 
-3.970556 0.110462 -3.40624 
-3.980037 0.110462 -3.375862 
-3.980037 0.137352 -3.375887 
-3.970556 0.110462 -3.40624 
-3.970556 0.083558 -3.40624 
-3.980037 0.083574 -3.37584 
-3.980037 0.110462 -3.375862 
4.672806 0.110462 -3.416365 
4.672806 0.083558 -3.416365 
-3.942102 0.083558 -3.416365 
-3.942102 0.110462 -3.416365 
4.672806 0.137352 -3.416365 
4.672806 0.110462 -3.416365 
-3.942102 0.110462 -3.416365 
-3.942102 0.137352 -3.416365 
4.710737 0.116301 3.363355 
4.710737 0.09039 3.36802 
4.705898 0.093528 3.35283 
4.705898 0.115967 3.348323 
4.701257 1.605223 -3.40624 
4.701257 1.632114 -3.40624 
4.710741 1.632105 -3.375862 
4.710741 1.605223 -3.375887 
4.701257 1.632114 -3.40624 
4.701257 1.658998 -3.40624 
4.710741 1.658998 -3.37584 
4.710741 1.632105 -3.375862 
-3.942102 1.632114 -3.416365 
-3.942102 1.659013 -3.416365 
4.672806 1.659013 -3.416365 
4.672806 1.632114 -3.416365 
-3.942102 1.605223 -3.416365 
-3.942102 1.632114 -3.416365 
4.672806 1.632114 -3.416365 
4.672806 1.605223 -3.416365 
-3.980041 1.629348 3.363355 
-3.980041 1.652387 3.368014 
-3.975202 1.648731 3.348483 
-3.975202 1.629023 3.344026 
-3.980041 0.87129 3.580899 
-3.980041 0.87129 3.558184 
-3.980041 0.706725 3.5562 
-3.980041 0.704674 3.578833 
-3.980041 0.87129 3.53547 
-3.980041 0.708769 3.53356 
-3.980041 0.553021 3.529289 
-3.980041 0.548703 3.551727 
-3.980041 0.556008 3.513737 
-3.980041 0.544385 3.574161 
-3.980041 0.703251 3.594522 
4.710737 0.544385 3.574165 
4.710737 0.548703 3.551727 
4.710737 0.706725 3.5562 
4.710737 0.704674 3.578833 
4.710737 0.553021 3.529293 
4.710737 0.708769 3.533567 
4.710737 0.87129 3.535477 
4.710737 0.87129 3.55819 
4.710737 0.87129 3.580904 
-3.980041 1.467236 3.56521 
-3.980041 1.456673 3.54413 
-3.980041 1.338798 3.550949 
-3.980041 1.345796 3.573193 
-3.980041 1.446108 3.523052 
-3.980041 1.33181 3.528727 
-3.980041 1.189575 3.529289 
-3.980041 1.193884 3.551727 
-3.980041 1.198199 3.574161 
4.710737 1.338798 3.550956 
4.710737 1.198199 3.574165 
4.710737 1.193884 3.551732 
4.710737 1.33181 3.528733 
4.710737 1.345796 3.573193 
4.710737 1.201187 3.589721 
4.710737 1.189575 3.529293 
4.710737 1.326958 3.513335 
4.710737 1.446108 3.523056 
4.710737 1.456673 3.544136 
4.710737 1.438778 3.508435 
4.710737 1.467221 3.565201 
4.710737 1.350652 3.588616 
-3.980041 1.035868 3.5562 
-3.980041 1.037923 3.578833 
-3.980041 1.033806 3.533567 
4.710737 1.035858 3.5562 
4.710737 1.037923 3.578833 
4.710737 1.033806 3.533567 
4.710737 1.186579 3.513737 
4.710737 1.039334 3.594528 
4.710737 0.27536 3.56521 
4.710737 0.285921 3.544136 
4.710737 0.403781 3.550956 
4.710737 0.396787 3.573193 
4.710737 0.296486 3.523056 
4.710737 0.410774 3.528733 
-3.980041 0.403781 3.55095 
-3.980041 0.410786 3.528726 
-3.980041 0.396787 3.573193 
-3.980041 0.541399 3.589721 
-3.980041 0.415638 3.513329 
-3.980041 0.296486 3.52305 
-3.980041 0.285921 3.54413 
-3.980041 0.303807 3.508435 
-3.980041 0.27536 3.565201 
-3.980041 0.391942 3.588611 
-3.980041 0.141235 3.504105 
-3.980041 0.161603 3.490152 
-3.980041 0.131909 3.44333 
-3.980041 0.108067 3.452074 
-3.980041 0.181971 3.47606 
-3.980041 0.15575 3.434521 
-3.980041 0.145014 3.374324 
-3.980041 0.119516 3.37983 
-3.980041 0.094033 3.385331 
4.710737 0.094033 3.385337 
4.710737 0.119516 3.379831 
4.710737 0.131909 3.443336 
4.710737 0.108067 3.452081 
4.710737 0.145014 3.37433 
4.710737 0.15575 3.434527 
4.710737 0.181971 3.476048 
4.710737 0.161603 3.490157 
4.710737 0.141226 3.50411 
4.710737 1.601361 3.50411 
4.710737 1.580991 3.490157 
4.710737 1.610678 3.443336 
4.710737 1.634519 3.452081 
4.710737 1.560623 3.476067 
4.710737 1.586833 3.434527 
4.710737 1.597592 3.374211 
4.710737 1.623083 3.379707 
4.710737 1.648581 3.385207 
-3.980041 1.648581 3.3852 
-3.980041 1.623083 3.379706 
-3.980041 1.610678 3.44333 
-3.980041 1.634519 3.452074 
-3.980041 1.597599 3.374206 
-3.980041 1.586833 3.434521 
-3.980041 1.560623 3.476041 
-3.980041 1.580991 3.490157 
-3.980041 1.601361 3.50411 
-3.980041 0.209061 3.52377 
-3.980041 0.22455 3.505485 
-3.980041 0.19358 3.54199 
-3.980041 0.268042 3.579812 
-3.980041 0.235273 3.49278 
-3.980041 0.196089 3.466245 
-3.980041 0.182851 3.554583 
4.710737 0.209061 3.523776 
4.710737 0.19358 3.542016 
4.710737 0.22455 3.50549 
4.710737 1.533525 3.523776 
4.710737 1.518046 3.50549 
4.710737 1.549003 3.541996 
4.710737 1.474553 3.579818 
4.710737 1.507299 3.492786 
4.710737 1.546507 3.466251 
4.710737 1.559742 3.554588 
-3.980041 1.533525 3.523776 
-3.980041 1.549003 3.54201 
-3.980041 1.518046 3.505485 
-3.970558 0.071442 3.373141 
-3.965729 0.077102 3.357776 
-3.965729 0.072048 3.236605 
-3.970558 0.055252 3.211842 
4.672806 0.054027 -3.40624 
4.693882 0.056852 -3.398346 
4.701257 0.054027 -3.375817 
4.672806 0.050399 -3.375817 
4.701254 0.055252 3.211847 
4.696426 0.072048 3.23661 
-3.942102 1.688547 -3.40624 
-3.963178 1.685722 -3.398346 
-3.970556 1.688547 -3.37584 
-3.942102 1.692177 -3.37584 
-3.942106 1.690926 3.220345 
-3.970558 1.687342 3.219903 
-3.970558 1.6751 3.236605 
-3.942106 1.678248 3.237047 
4.672803 1.67231 3.373773 
4.701254 1.669238 3.373146 
4.696426 1.663163 3.353391 
4.668007 1.665792 3.353991 
4.672803 1.678248 3.237047 
4.701254 1.6751 3.23661 
4.701254 1.687342 3.219908 
4.672803 1.690926 3.220345 
-3.970558 0.87129 3.605845 
-3.970558 0.702419 3.603687 
-3.970558 0.539659 3.598805 
4.701254 0.539644 3.598811 
4.701253 0.702419 3.603693 
4.701254 0.87129 3.605845 
-3.970558 1.47883 3.588335 
-3.970558 1.353476 3.59759 
-3.970558 1.202936 3.598805 
4.701254 1.202936 3.598811 
4.701253 1.353476 3.597596 
4.701254 1.47883 3.588341 
-3.970558 1.040176 3.603687 
4.701253 1.040176 3.603693 
4.701254 0.263759 3.588341 
4.701253 0.389109 3.597596 
-3.970558 0.389109 3.59759 
-3.970558 0.263759 3.588335 
4.701254 0.06604 3.391385 
4.701254 0.081887 3.461683 
4.701254 0.118854 3.519255 
-3.970558 0.118854 3.51925 
-3.970558 0.081887 3.461677 
-3.970558 0.06604 3.39138 
-3.970558 1.676583 3.391242 
-3.970558 1.660708 3.461677 
-3.970558 1.62372 3.51925 
4.701254 1.62372 3.519255 
4.701254 1.660708 3.461683 
4.701254 1.676583 3.391248 
4.701253 0.176584 3.561994 
-3.970558 0.176584 3.561953 
-3.970558 1.566001 3.561989 
4.701253 1.566001 3.561957 
4.634868 0.174193 3.352941 
4.672803 0.174193 3.352941 
4.668007 0.166141 3.339972 
4.630114 0.166142 3.339972 
4.701254 0.170686 3.353567 
4.696426 0.163107 3.34058 
4.668007 0.163296 3.222486 
4.696426 0.160193 3.222923 
4.701247 0.166937 3.198219 
4.672775 0.170532 3.197806 
-3.940206 0.166889 -3.404238 
-3.962335 0.164066 -3.397496 
-3.968658 0.166889 -3.373883 
-3.934516 0.170527 -3.367808 
-3.942077 0.170532 3.1978 
-3.97055 0.166939 3.198219 
-3.965729 0.160193 3.222923 
-3.937309 0.163296 3.22248 
4.670909 1.575676 -3.404215 
4.693038 1.578499 -3.397472 
4.69936 1.575676 -3.373883 
4.665218 1.572049 -3.367808 
4.672784 1.572061 3.20584 
4.70125 1.575646 3.206262 
4.701254 1.584349 3.222923 
4.672803 1.581163 3.222486 
-3.904172 1.568403 3.352935 
-3.942106 1.568403 3.352935 
-3.937309 1.576972 3.33406 
-3.899417 1.576972 3.33406 
-3.970558 1.571897 3.353562 
-3.965729 1.579959 3.334661 
-3.942106 1.572064 3.22248 
-3.970558 1.575646 3.222923 
-3.970553 1.575646 3.206262 
-3.942087 1.572064 3.205834 
4.634868 0.87129 3.50747 
4.672803 0.87129 3.50747 
4.672803 0.711297 3.505657 
4.634868 0.711297 3.505657 
4.701254 0.87129 3.510537 
4.701253 0.711027 3.508713 
4.701254 0.557752 3.504659 
4.672803 0.558346 3.501632 
4.634868 0.558346 3.501632 
-3.904172 0.558346 3.501628 
-3.942106 0.558346 3.501628 
-3.942106 0.711313 3.505652 
-3.904172 0.711313 3.505652 
-3.970558 0.557752 3.504652 
-3.970558 0.711027 3.508706 
-3.970558 0.87129 3.51053 
-3.942106 0.87129 3.507464 
-3.904172 0.87129 3.507464 
4.634868 1.433075 3.497011 
4.672803 1.433075 3.497011 
4.672803 1.323179 3.501315 
4.634868 1.323179 3.501315 
4.701254 1.434497 3.499879 
4.701254 1.324123 3.504333 
4.701254 1.184841 3.504659 
4.672803 1.18425 3.501632 
4.634868 1.18425 3.501632 
-3.904172 1.18425 3.501628 
-3.942106 1.18425 3.501628 
-3.942106 1.323179 3.501309 
-3.904172 1.323179 3.501309 
-3.970558 1.184841 3.504652 
-3.970558 1.324123 3.504328 
-3.970558 1.434497 3.499874 
-3.942106 1.433075 3.497005 
-3.904172 1.433075 3.497005 
4.672803 1.031281 3.505657 
4.634868 1.031281 3.505657 
4.701253 1.031551 3.508713 
-3.942106 1.031281 3.505652 
-3.904172 1.031281 3.505652 
-3.970558 1.031551 3.508706 
-3.904172 0.309512 3.497005 
-3.942106 0.309512 3.497005 
-3.942106 0.419415 3.501309 
-3.904172 0.419415 3.501309 
-3.970558 0.308082 3.499874 
-3.970558 0.41846 3.504328 
4.672803 0.419415 3.501315 
4.634868 0.419415 3.501315 
4.701254 0.41846 3.504333 
4.701254 0.308082 3.499879 
4.672803 0.309512 3.497011 
4.634868 0.309512 3.497011 
-3.904172 0.176447 3.367535 
-3.942106 0.176447 3.367535 
-3.942106 0.185145 3.423522 
-3.904172 0.185145 3.423522 
-3.970558 0.173003 3.368276 
-3.970558 0.181929 3.424754 
-3.970558 0.204336 3.46051 
-3.942106 0.207087 3.458562 
-3.904172 0.207087 3.458562 
4.634868 0.207087 3.458568 
4.672803 0.207087 3.458568 
4.672803 0.185145 3.423527 
4.634868 0.185145 3.423527 
4.701254 0.204336 3.460516 
4.701254 0.181929 3.424759 
4.701254 0.173003 3.368281 
4.672803 0.176447 3.36754 
4.634868 0.176447 3.36754 
4.634868 1.566162 3.36743 
4.672803 1.566162 3.36743 
4.672803 1.557433 3.423527 
4.634868 1.557433 3.423527 
4.701254 1.5696 3.36817 
4.701254 1.560656 3.424759 
4.701254 1.538249 3.460516 
4.672803 1.535506 3.458568 
4.634868 1.535506 3.458568 
-3.904172 1.535506 3.458562 
-3.942106 1.535506 3.458562 
-3.942106 1.557433 3.423522 
-3.904172 1.557433 3.423522 
-3.970558 1.538249 3.46051 
-3.970558 1.560656 3.424754 
-3.970558 1.5696 3.368164 
-3.942106 1.566162 3.367424 
-3.904172 1.566162 3.367424 
-3.942106 0.243637 3.482845 
-3.904172 0.243637 3.482845 
-3.970558 0.241548 3.485349 
4.672803 0.243637 3.482851 
4.634868 0.243637 3.482851 
4.701254 0.241548 3.485353 
4.672803 1.498959 3.482851 
4.634868 1.498959 3.482851 
4.701254 1.501048 3.485353 
-3.942106 1.498959 3.482845 
-3.904172 1.498959 3.482845 
-3.970558 1.501048 3.485349 
-3.970556 0.083558 -3.40624 
-3.970556 0.110462 -3.40624 
-3.942102 0.110462 -3.416365 
-3.942102 0.083558 -3.416365 
-3.970556 0.110462 -3.40624 
-3.970556 0.137352 -3.40624 
-3.942102 0.137352 -3.416365 
-3.942102 0.110462 -3.416365 
4.701257 0.137352 -3.40624 
4.701257 0.110462 -3.40624 
4.672806 0.110462 -3.416365 
4.672806 0.137352 -3.416365 
4.701257 0.110462 -3.40624 
4.701257 0.083558 -3.40624 
4.672806 0.083558 -3.416365 
4.672806 0.110462 -3.416365 
4.701257 1.658998 -3.40624 
4.701257 1.632114 -3.40624 
4.672806 1.632114 -3.416365 
4.672806 1.659013 -3.416365 
4.701257 1.632114 -3.40624 
4.701257 1.605223 -3.40624 
4.672806 1.605223 -3.416365 
4.672806 1.632114 -3.416365 
-3.970556 1.605223 -3.40624 
-3.970556 1.632114 -3.40624 
-3.942102 1.632114 -3.416365 
-3.942102 1.605223 -3.416365 
-3.970556 1.632114 -3.40624 
-3.970556 1.659013 -3.40624 
-3.942102 1.659013 -3.416365 
-3.942102 1.632114 -3.416365 
4.672806 0.054027 -3.40624 
4.672806 0.050399 -3.375817 
-3.942102 0.050399 -3.37584 
-3.942102 0.054027 -3.40624 
-3.934516 0.170527 -3.367808 
-3.904169 0.170527 -3.335428 
4.634872 0.170527 -3.335429 
4.665218 0.170527 -3.367808 
-3.940206 0.166889 -3.404238 
-3.934516 0.170527 -3.367808 
4.665218 0.170527 -3.367808 
4.670909 0.166889 -3.404215 
4.701257 0.083558 -3.40624 
4.701257 0.110462 -3.40624 
4.710741 0.110462 -3.375862 
4.710741 0.083558 -3.37584 
4.701257 0.110462 -3.40624 
4.701257 0.137352 -3.40624 
4.710741 0.137352 -3.375887 
4.710741 0.110462 -3.375862 
4.710737 0.111086 3.205033 
4.710737 0.137703 3.201782 
4.705898 0.134953 3.226507 
4.705898 0.111972 3.22977 
4.705898 0.088996 3.233033 
4.710737 0.084472 3.208283 
-3.970556 1.659013 -3.40624 
-3.970556 1.632114 -3.40624 
-3.980037 1.632105 -3.375862 
-3.980037 1.658998 -3.37584 
-3.970556 1.632114 -3.40624 
-3.970556 1.605223 -3.40624 
-3.980037 1.605223 -3.375887 
-3.980037 1.632105 -3.375862 
-3.980041 1.631486 3.21308 
-3.980041 1.604875 3.209826 
-3.980041 1.604875 3.226502 
-3.980041 1.633981 3.229764 
-3.980041 1.657638 3.233026 
-3.980041 1.658103 3.216334 
-3.970556 0.054027 -3.37584 
-3.963178 0.056852 -3.398346 
-3.942102 0.054027 -3.40624 
-3.942102 0.050399 -3.37584 
4.701257 1.688537 -3.375817 
4.693882 1.685722 -3.398346 
4.672806 1.688547 -3.40624 
4.672806 1.692177 -3.375817 
4.69936 0.166889 -3.373883 
4.693038 0.164066 -3.397472 
4.670909 0.166889 -3.404215 
4.665218 0.170527 -3.367808 
4.634868 0.170532 3.197927 
4.630114 0.163296 3.222486 
-3.968658 1.575676 -3.373883 
-3.962335 1.578499 -3.397496 
-3.940206 1.575676 -3.404238 
-3.934516 1.572049 -3.367808 
-3.904172 1.572064 3.205916 
-3.904172 1.572064 3.22248 
-3.980041 0.084475 3.208276 
-3.975202 0.088996 3.233026 
-3.975202 0.111972 3.229764 
-3.980041 0.111086 3.205027 
-3.980041 0.137718 3.201777 
-3.975202 0.134967 3.226502 
4.710737 1.658103 3.21634 
4.710737 1.657638 3.233033 
4.710737 1.633981 3.22977 
4.710737 1.631486 3.213086 
4.710737 1.604875 3.209831 
4.710737 1.610329 3.226507 
-3.899417 0.163296 3.22248 
-3.904172 0.170532 3.197921 
4.634868 1.581163 3.222486 
4.634868 1.572061 3.205922 
-3.937309 1.665792 3.353985 
-3.942106 1.67231 3.373767 
-3.980041 0.09039 3.368014 
-3.980041 0.116301 3.363355 
-3.975202 0.115967 3.348322 
-3.975202 0.093528 3.352824 
-3.980041 0.142229 3.358688 
-3.975202 0.138421 3.343814 
4.710737 1.652387 3.36802 
4.710737 1.629348 3.363355 
4.705898 1.629023 3.344027 
4.705898 1.648731 3.348489 
4.710737 1.606311 3.358694 
4.705898 1.609318 3.339568 
4.696426 0.077102 3.357782 
4.701254 0.071442 3.373146 
-3.965729 1.663163 3.353386 
-3.970558 1.669238 3.373141 
-3.965729 0.163064 3.338862 
-3.970558 0.170686 3.353562 
-3.942106 0.174193 3.352935 
-3.937309 0.1661 3.338255 
-3.904172 0.174193 3.352935 
-3.899417 0.1661 3.338255 
4.696426 1.587681 3.334665 
4.701254 1.581018 3.353567 
4.672803 1.577911 3.352941 
4.668007 1.585023 3.334066 
4.634868 1.577911 3.352941 
4.630114 1.585023 3.334066 
-3.962335 0.164066 -3.397496 
-3.970556 0.156001 -3.406262 
-3.980037 0.156001 -3.375887 
-3.968658 0.166889 -3.373883 
-3.970556 0.156001 -3.406262 
-3.970556 0.137352 -3.40624 
-3.980037 0.137352 -3.375887 
-3.980037 0.156001 -3.375887 
-3.970556 0.083558 -3.40624 
-3.970556 0.06492 -3.40624 
-3.980037 0.06492 -3.37584 
-3.980037 0.083574 -3.37584 
-3.970556 0.06492 -3.40624 
-3.963178 0.056852 -3.398346 
-3.970556 0.054027 -3.37584 
-3.980037 0.06492 -3.37584 
-3.975202 0.081239 3.235287 
-3.980041 0.066023 3.210529 
4.672806 0.156001 -3.416365 
4.672806 0.137352 -3.416365 
-3.942102 0.137352 -3.416365 
-3.942102 0.156001 -3.416365 
4.672806 0.156001 -3.416365 
-3.942102 0.156001 -3.416365 
-3.940206 0.166889 -3.404238 
4.670909 0.166889 -3.404215 
-3.942102 0.06492 -3.416365 
-3.942102 0.083558 -3.416365 
4.672806 0.083558 -3.416365 
4.672806 0.06492 -3.416365 
-3.942102 0.06492 -3.416365 
4.672806 0.06492 -3.416365 
4.672806 0.054027 -3.40624 
-3.942102 0.054027 -3.40624 
4.701254 0.170686 3.353567 
4.710737 0.160186 3.355454 
4.705898 0.154018 3.342411 
4.696426 0.163107 3.34058 
4.710737 0.081808 3.371253 
4.705898 0.086079 3.355953 
4.710737 0.066023 3.210528 
4.705898 0.081239 3.235287 
4.693038 1.578499 -3.397472 
4.701257 1.586563 -3.40624 
4.710741 1.586563 -3.375887 
4.69936 1.575676 -3.373883 
4.701257 1.586563 -3.40624 
4.701257 1.605223 -3.40624 
4.710741 1.605223 -3.375887 
4.710741 1.586563 -3.375887 
4.701257 1.658998 -3.40624 
4.701257 1.677654 -3.40624 
4.710741 1.677642 -3.37584 
4.710741 1.658998 -3.37584 
4.701257 1.677654 -3.40624 
4.693882 1.685722 -3.398346 
4.701257 1.688537 -3.375817 
4.710741 1.677642 -3.37584 
4.710737 1.665628 3.235287 
4.710737 1.676562 3.218589 
-3.942102 1.586563 -3.416365 
-3.942102 1.605223 -3.416365 
4.672806 1.605223 -3.416365 
4.672806 1.586563 -3.416365 
-3.942102 1.586563 -3.416365 
4.672806 1.586563 -3.416365 
4.670909 1.575676 -3.404215 
-3.940206 1.575676 -3.404238 
4.672806 1.677654 -3.416365 
4.672806 1.659013 -3.416365 
-3.942102 1.659013 -3.416365 
-3.942102 1.677654 -3.416365 
4.672806 1.677654 -3.416365 
-3.942102 1.677654 -3.416365 
-3.942102 1.688547 -3.40624 
4.672806 1.688547 -3.40624 
-3.970558 1.571897 3.353562 
-3.980041 1.58239 3.355454 
-3.975202 1.588936 3.33647 
-3.965729 1.579959 3.334661 
-3.980041 1.660025 3.371253 
-3.975202 1.655282 3.351581 
-3.980041 1.676562 3.218588 
-3.980041 1.665628 3.235287 
-3.980041 0.87129 3.519724 
-3.980041 0.710203 3.517872 
-3.970558 0.87129 3.51053 
-3.970558 0.711027 3.508706 
-3.970558 0.557752 3.504652 
-3.980041 0.87129 3.596644 
4.710737 0.556008 3.513737 
4.710737 0.710203 3.517877 
4.701254 0.557752 3.504659 
4.701253 0.711027 3.508713 
4.701254 0.87129 3.510537 
4.710737 0.87129 3.51973 
4.710737 0.87129 3.596651 
4.710737 0.703251 3.594528 
4.710737 0.541399 3.589721 
-3.980041 1.438778 3.508435 
-3.980041 1.326958 3.513329 
-3.970558 1.434497 3.499874 
-3.970558 1.324123 3.504328 
-3.970558 1.184841 3.504652 
-3.980041 1.186579 3.513737 
-3.980041 1.201187 3.589721 
-3.980041 1.350652 3.588611 
-3.980041 1.474553 3.579812 
4.701254 1.184841 3.504659 
4.701254 1.324123 3.504333 
4.701254 1.434497 3.499879 
-3.980041 1.032393 3.517872 
-3.970558 1.031551 3.508706 
-3.980041 1.039334 3.594522 
4.710737 1.032393 3.517877 
4.701253 1.031551 3.508713 
4.710737 0.303807 3.508435 
4.710737 0.415638 3.513335 
4.701254 0.308082 3.499879 
4.701254 0.41846 3.504333 
4.710737 0.391942 3.588611 
4.710737 0.268042 3.579818 
-3.970558 0.41846 3.504328 
-3.970558 0.308082 3.499874 
-3.980041 0.172271 3.428359 
-3.970558 0.204336 3.46051 
-3.970558 0.181929 3.424754 
-3.970558 0.173003 3.368276 
-3.980041 0.162676 3.370508 
-3.980041 0.076357 3.389148 
-3.980041 0.091538 3.458139 
-3.980041 0.127113 3.51371 
4.710737 0.162676 3.370508 
4.710737 0.172271 3.428359 
4.701254 0.173003 3.368281 
4.701254 0.181929 3.424759 
4.701254 0.204336 3.460516 
4.710737 0.196089 3.466251 
4.710737 0.127113 3.513715 
4.710737 0.091538 3.458144 
4.710737 0.076357 3.389153 
4.710737 1.570304 3.428359 
4.701254 1.538249 3.460516 
4.701254 1.560656 3.424759 
4.701254 1.5696 3.36817 
4.710737 1.579918 3.3704 
4.710737 1.66627 3.389019 
4.710737 1.651058 3.458144 
4.710737 1.615482 3.513715 
-3.980041 1.579918 3.370394 
-3.980041 1.570304 3.428359 
-3.970558 1.5696 3.368164 
-3.970558 1.560656 3.424754 
-3.970558 1.538249 3.46051 
-3.980041 1.546507 3.466245 
-3.980041 1.615482 3.51371 
-3.980041 1.651058 3.458139 
-3.980041 1.66627 3.389017 
-3.970558 0.241548 3.485349 
4.710737 0.235273 3.492786 
4.701254 0.241548 3.485353 
4.710737 0.182851 3.55462 
4.701254 1.501048 3.485353 
-3.980041 1.507299 3.49278 
-3.970558 1.501048 3.485349 
-3.980041 1.559742 3.554615 
-3.970556 0.137352 -3.40624 
-3.970556 0.156001 -3.406262 
-3.942102 0.156001 -3.416365 
-3.942102 0.137352 -3.416365 
-3.970556 0.156001 -3.406262 
-3.962335 0.164066 -3.397496 
-3.940206 0.166889 -3.404238 
-3.942102 0.156001 -3.416365 
-3.963178 0.056852 -3.398346 
-3.970556 0.06492 -3.40624 
-3.942102 0.06492 -3.416365 
-3.942102 0.054027 -3.40624 
-3.970556 0.06492 -3.40624 
-3.970556 0.083558 -3.40624 
-3.942102 0.083558 -3.416365 
-3.942102 0.06492 -3.416365 
4.701257 0.083558 -3.40624 
4.701257 0.06492 -3.40624 
4.672806 0.06492 -3.416365 
4.672806 0.083558 -3.416365 
4.701257 0.06492 -3.40624 
4.693882 0.056852 -3.398346 
4.672806 0.054027 -3.40624 
4.672806 0.06492 -3.416365 
4.693038 0.164066 -3.397472 
4.701257 0.156001 -3.40624 
4.672806 0.156001 -3.416365 
4.670909 0.166889 -3.404215 
4.701257 0.156001 -3.40624 
4.701257 0.137352 -3.40624 
4.672806 0.137352 -3.416365 
4.672806 0.156001 -3.416365 
4.701257 1.605223 -3.40624 
4.701257 1.586563 -3.40624 
4.672806 1.586563 -3.416365 
4.672806 1.605223 -3.416365 
4.701257 1.586563 -3.40624 
4.693038 1.578499 -3.397472 
4.670909 1.575676 -3.404215 
4.672806 1.586563 -3.416365 
4.693882 1.685722 -3.398346 
4.701257 1.677654 -3.40624 
4.672806 1.677654 -3.416365 
4.672806 1.688547 -3.40624 
4.701257 1.677654 -3.40624 
4.701257 1.658998 -3.40624 
4.672806 1.659013 -3.416365 
4.672806 1.677654 -3.416365 
-3.970556 1.659013 -3.40624 
-3.970556 1.677654 -3.40624 
-3.942102 1.677654 -3.416365 
-3.942102 1.659013 -3.416365 
-3.970556 1.677654 -3.40624 
-3.963178 1.685722 -3.398346 
-3.942102 1.688547 -3.40624 
-3.942102 1.677654 -3.416365 
-3.962335 1.578499 -3.397496 
-3.970556 1.586563 -3.40624 
-3.942102 1.586563 -3.416365 
-3.940206 1.575676 -3.404238 
-3.970556 1.586563 -3.40624 
-3.970556 1.605223 -3.40624 
-3.942102 1.605223 -3.416365 
-3.942102 1.586563 -3.416365 
4.701257 0.137352 -3.40624 
4.701257 0.156001 -3.40624 
4.710741 0.156001 -3.375887 
4.710741 0.137352 -3.375887 
4.701257 0.156001 -3.40624 
4.693038 0.164066 -3.397472 
4.69936 0.166889 -3.373883 
4.710741 0.156001 -3.375887 
4.710737 0.156159 3.19953 
4.701247 0.166937 3.198219 
4.696426 0.160193 3.222923 
4.705898 0.150887 3.224246 
4.693882 0.056852 -3.398346 
4.701257 0.06492 -3.40624 
4.710741 0.06492 -3.37584 
4.701257 0.054027 -3.375817 
4.701257 0.06492 -3.40624 
4.701257 0.083558 -3.40624 
4.710741 0.083558 -3.37584 
4.710741 0.06492 -3.37584 
-3.970556 1.605223 -3.40624 
-3.970556 1.586563 -3.40624 
-3.980037 1.586563 -3.375887 
-3.980037 1.605223 -3.375887 
-3.970556 1.586563 -3.40624 
-3.962335 1.578499 -3.397496 
-3.968658 1.575676 -3.373883 
-3.980037 1.586563 -3.375887 
-3.980041 1.586424 3.207571 
-3.970553 1.575646 3.206262 
-3.970558 1.575646 3.222923 
-3.980041 1.586424 3.224241 
-3.963178 1.685722 -3.398346 
-3.970556 1.677654 -3.40624 
-3.980037 1.677642 -3.37584 
-3.970556 1.688547 -3.37584 
-3.970556 1.677654 -3.40624 
-3.970556 1.659013 -3.40624 
-3.980037 1.658998 -3.37584 
-3.980037 1.677642 -3.37584 
-3.975202 0.150887 3.224241 
-3.980041 0.156159 3.199524 
-3.97055 0.166939 3.198219 
-3.965729 0.160193 3.222923 
4.710737 1.59393 3.224246 
4.710737 1.586424 3.207576 
4.70125 1.575646 3.206262 
4.701254 1.584349 3.222923 
-3.980041 0.160186 3.355454 
-3.975202 0.153972 3.340689 
-3.970558 0.170686 3.353562 
-3.965729 0.163064 3.338862 
-3.980041 0.081808 3.371248 
-3.975202 0.086079 3.355948 
4.710737 1.590341 3.355461 
4.705898 1.595656 3.336476 
4.701254 1.581018 3.353567 
4.696426 1.587681 3.334665 
4.710737 1.660025 3.371253 
4.705898 1.655282 3.351581 
-3.942077 0.170532 3.1978 
-3.904172 0.170532 3.197921 
-3.904169 0.170527 -3.335428 
-3.934516 0.170527 -3.367808 
-3.934516 0.170527 -3.367808 
-3.968658 0.166889 -3.373883 
-3.97055 0.166939 3.198219 
-3.942077 0.170532 3.1978 
-3.968658 0.166889 -3.373883 
-3.980037 0.156001 -3.375887 
-3.980041 0.156159 3.199524 
-3.97055 0.166939 3.198219 
-3.980037 0.137352 -3.375887 
-3.980041 0.137718 3.201777 
-3.980041 0.156159 3.199524 
-3.980037 0.156001 -3.375887 
-3.980037 0.137352 -3.375887 
-3.980037 0.110462 -3.375862 
-3.980041 0.111086 3.205027 
-3.980041 0.137718 3.201777 
-3.980037 0.083574 -3.37584 
-3.980041 0.084475 3.208276 
-3.980041 0.111086 3.205027 
-3.980037 0.110462 -3.375862 
-3.980037 0.083574 -3.37584 
-3.980037 0.06492 -3.37584 
-3.980041 0.066023 3.210529 
-3.980041 0.084475 3.208276 
-3.970556 0.054027 -3.37584 
-3.970558 0.055252 3.211842 
-3.980041 0.066023 3.210529 
-3.980037 0.06492 -3.37584 
-3.942106 0.051657 3.212283 
-3.970558 0.055252 3.211842 
-3.970556 0.054027 -3.37584 
-3.942102 0.050399 -3.37584 
-3.942102 0.050399 -3.37584 
4.672806 0.050399 -3.375817 
4.672803 0.051657 3.212283 
-3.942106 0.051657 3.212283 
4.672806 0.050399 -3.375817 
4.701257 0.054027 -3.375817 
4.701254 0.055252 3.211847 
4.672803 0.051657 3.212283 
4.710737 0.066023 3.210528 
4.701254 0.055252 3.211847 
4.701257 0.054027 -3.375817 
4.710741 0.06492 -3.37584 
4.710737 0.084472 3.208283 
4.710737 0.066023 3.210528 
4.710741 0.06492 -3.37584 
4.710741 0.083558 -3.37584 
4.710741 0.110462 -3.375862 
4.710737 0.111086 3.205033 
4.710737 0.084472 3.208283 
4.710741 0.083558 -3.37584 
4.710741 0.110462 -3.375862 
4.710741 0.137352 -3.375887 
4.710737 0.137703 3.201782 
4.710737 0.111086 3.205033 
4.710741 0.156001 -3.375887 
4.710737 0.156159 3.19953 
4.710737 0.137703 3.201782 
4.710741 0.137352 -3.375887 
4.710741 0.156001 -3.375887 
4.69936 0.166889 -3.373883 
4.701247 0.166937 3.198219 
4.710737 0.156159 3.19953 
4.672775 0.170532 3.197806 
4.701247 0.166937 3.198219 
4.69936 0.166889 -3.373883 
4.665218 0.170527 -3.367808 
4.665218 0.170527 -3.367808 
4.634872 0.170527 -3.335429 
4.634868 0.170532 3.197927 
4.672775 0.170532 3.197806 
4.672784 1.572061 3.20584 
4.634868 1.572061 3.205922 
4.634872 1.572049 -3.335429 
4.665218 1.572049 -3.367808 
4.665218 1.572049 -3.367808 
4.69936 1.575676 -3.373883 
4.70125 1.575646 3.206262 
4.672784 1.572061 3.20584 
4.69936 1.575676 -3.373883 
4.710741 1.586563 -3.375887 
4.710737 1.586424 3.207576 
4.70125 1.575646 3.206262 
4.710741 1.605223 -3.375887 
4.710737 1.604875 3.209831 
4.710737 1.586424 3.207576 
4.710741 1.586563 -3.375887 
4.710741 1.605223 -3.375887 
4.710741 1.632105 -3.375862 
4.710737 1.631486 3.213086 
4.710737 1.604875 3.209831 
4.710741 1.658998 -3.37584 
4.710737 1.658103 3.21634 
4.710737 1.631486 3.213086 
4.710741 1.632105 -3.375862 
4.710741 1.658998 -3.37584 
4.710741 1.677642 -3.37584 
4.710737 1.676562 3.218589 
4.710737 1.658103 3.21634 
4.701257 1.688537 -3.375817 
4.701254 1.687342 3.219908 
4.710737 1.676562 3.218589 
4.710741 1.677642 -3.37584 
4.672803 1.690926 3.220345 
4.701254 1.687342 3.219908 
4.701257 1.688537 -3.375817 
4.672806 1.692177 -3.375817 
4.672806 1.692177 -3.375817 
-3.942102 1.692177 -3.37584 
-3.942106 1.690926 3.220345 
4.672803 1.690926 3.220345 
-3.942102 1.692177 -3.37584 
-3.970556 1.688547 -3.37584 
-3.970558 1.687342 3.219903 
-3.942106 1.690926 3.220345 
-3.980041 1.676562 3.218588 
-3.970558 1.687342 3.219903 
-3.970556 1.688547 -3.37584 
-3.980037 1.677642 -3.37584 
-3.980041 1.658103 3.216334 
-3.980041 1.676562 3.218588 
-3.980037 1.677642 -3.37584 
-3.980037 1.658998 -3.37584 
-3.980037 1.632105 -3.375862 
-3.980041 1.631486 3.21308 
-3.980041 1.658103 3.216334 
-3.980037 1.658998 -3.37584 
-3.980037 1.632105 -3.375862 
-3.980037 1.605223 -3.375887 
-3.980041 1.604875 3.209826 
-3.980041 1.631486 3.21308 
-3.980037 1.586563 -3.375887 
-3.980041 1.586424 3.207571 
-3.980041 1.604875 3.209826 
-3.980037 1.605223 -3.375887 
-3.980037 1.586563 -3.375887 
-3.968658 1.575676 -3.373883 
-3.970553 1.575646 3.206262 
-3.980041 1.586424 3.207571 
-3.942087 1.572064 3.205834 
-3.970553 1.575646 3.206262 
-3.968658 1.575676 -3.373883 
-3.934516 1.572049 -3.367808 
-3.934516 1.572049 -3.367808 
-3.904169 1.572049 -3.335428 
-3.904172 1.572064 3.205916 
-3.942087 1.572064 3.205834 
4.710737 0.142229 3.358694 
-3.980041 1.606319 3.358688 
-3.975202 1.608651 3.339563 
4.630114 1.587107 3.235896 
4.668007 1.587107 3.235896 
4.696426 1.589815 3.236353 
4.696426 1.589815 3.236353 
4.705898 1.597956 3.237734 
4.705898 1.611894 3.240095 
4.705898 1.631995 3.243502 
4.705898 1.652097 3.246908 
4.705898 1.658874 3.249263 
4.696426 1.666924 3.250645 
4.668007 1.669598 3.251102 
-3.937309 1.669598 3.251101 
-3.965729 1.666924 3.25064 
-3.975202 1.658874 3.249263 
-3.975202 1.652097 3.246902 
-3.975202 1.631995 3.243496 
-3.975202 1.607726 3.24009 
-3.975202 1.591523 3.237729 
-3.965729 1.582363 3.236352 
-3.965729 1.582363 3.236352 
-3.937309 1.579319 3.23589 
-3.899417 1.579319 3.23589 
4.705898 0.1385 3.344822 
3 0 1 2 
3 0 2 3 
3 4 5 6 
3 4 6 7 
3 8 9 10 
3 8 10 11 
3 12 13 14 
3 12 14 15 
3 14 16 17 
3 14 17 15 
3 18 19 20 
3 18 20 21 
3 20 22 23 
3 20 23 21 
3 23 22 24 
3 23 24 25 
3 13 12 25 
3 13 25 24 
3 26 27 28 
3 26 28 29 
3 17 16 29 
3 17 29 28 
3 30 31 32 
3 30 32 33 
3 32 34 35 
3 32 35 33 
3 36 37 38 
3 36 38 39 
3 38 40 41 
3 38 41 39 
3 35 34 42 
3 35 42 43 
3 27 26 43 
3 27 43 42 
3 41 40 44 
3 41 44 45 
3 19 18 45 
3 19 45 44 
3 46 47 48 
3 46 48 49 
3 50 51 52 
3 50 52 53 
3 54 55 56 
3 54 56 57 
3 58 59 60 
3 58 60 61 
3 62 63 64 
3 62 64 65 
3 66 67 68 
3 66 68 69 
3 70 71 72 
3 70 72 73 
3 74 75 76 
3 74 76 77 
3 78 79 80 
3 78 80 81 
3 82 83 84 
3 82 84 85 
3 86 87 88 
3 86 88 89 
3 90 91 92 
3 90 92 93 
3 94 95 96 
3 94 96 97 
3 95 98 99 
3 95 99 96 
3 96 100 101 
3 96 101 97 
3 100 96 99 
3 100 99 102 
3 97 101 103 
3 97 103 104 
3 105 106 107 
3 105 107 108 
3 106 109 110 
3 106 110 107 
3 111 112 107 
3 111 107 110 
3 112 113 108 
3 112 108 107 
3 114 115 116 
3 114 116 117 
3 115 118 119 
3 115 119 116 
3 120 121 116 
3 120 116 119 
3 121 122 117 
3 121 117 116 
3 123 124 125 
3 123 125 126 
3 124 123 127 
3 124 127 128 
3 126 125 129 
3 126 129 130 
3 123 131 132 
3 123 132 127 
3 131 123 126 
3 131 126 133 
3 127 132 134 
3 127 134 135 
3 122 121 136 
3 122 136 137 
3 121 120 138 
3 121 138 136 
3 98 95 136 
3 98 136 138 
3 95 94 137 
3 95 137 136 
3 113 112 139 
3 113 139 140 
3 112 111 141 
3 112 141 139 
3 139 129 125 
3 139 125 140 
3 129 139 141 
3 129 141 142 
3 140 125 124 
3 140 124 143 
3 144 145 146 
3 144 146 147 
3 145 148 149 
3 145 149 146 
3 109 106 146 
3 109 146 149 
3 106 105 147 
3 106 147 146 
3 150 103 101 
3 150 101 151 
3 103 150 152 
3 103 152 153 
3 151 101 100 
3 151 100 154 
3 150 155 156 
3 150 156 152 
3 155 150 151 
3 155 151 157 
3 152 156 158 
3 152 158 159 
3 160 161 162 
3 160 162 163 
3 161 164 165 
3 161 165 162 
3 166 167 162 
3 166 162 165 
3 167 168 163 
3 167 163 162 
3 169 170 171 
3 169 171 172 
3 170 173 174 
3 170 174 171 
3 175 176 171 
3 175 171 174 
3 176 177 172 
3 176 172 171 
3 178 179 180 
3 178 180 181 
3 179 182 183 
3 179 183 180 
3 184 185 180 
3 184 180 183 
3 185 186 181 
3 185 181 180 
3 187 188 189 
3 187 189 190 
3 188 191 192 
3 188 192 189 
3 193 194 189 
3 193 189 192 
3 194 195 190 
3 194 190 189 
3 196 158 156 
3 196 156 197 
3 158 196 198 
3 158 198 199 
3 197 156 155 
3 197 155 200 
3 196 164 161 
3 196 161 198 
3 164 196 197 
3 164 197 201 
3 198 161 160 
3 198 160 202 
3 177 176 203 
3 177 203 204 
3 176 175 205 
3 176 205 203 
3 148 145 203 
3 148 203 205 
3 145 144 204 
3 145 204 203 
3 206 134 132 
3 206 132 207 
3 134 206 208 
3 134 208 209 
3 207 132 131 
3 207 131 210 
3 206 182 179 
3 206 179 208 
3 182 206 207 
3 182 207 211 
3 208 179 178 
3 208 178 212 
3 195 194 213 
3 195 213 214 
3 194 193 215 
3 194 215 213 
3 118 115 213 
3 118 213 215 
3 115 114 214 
3 115 214 213 
3 1 216 217 
3 1 217 2 
3 7 218 219 
3 7 219 4 
3 220 221 222 
3 220 222 223 
3 5 224 225 
3 5 225 6 
3 226 227 228 
3 226 228 229 
3 230 231 232 
3 230 232 233 
3 234 235 236 
3 234 236 237 
3 238 239 240 
3 238 240 241 
3 13 242 243 
3 13 243 14 
3 244 16 14 
3 244 14 243 
3 17 245 246 
3 17 246 15 
3 247 12 15 
3 247 15 246 
3 19 248 249 
3 19 249 20 
3 250 22 20 
3 250 20 249 
3 23 251 252 
3 23 252 21 
3 253 18 21 
3 253 21 252 
3 22 250 254 
3 22 254 24 
3 242 13 24 
3 242 24 254 
3 12 247 255 
3 12 255 25 
3 251 23 25 
3 251 25 255 
3 27 256 257 
3 27 257 28 
3 245 17 28 
3 245 28 257 
3 16 244 258 
3 16 258 29 
3 259 26 29 
3 259 29 258 
3 31 260 261 
3 31 261 32 
3 262 34 32 
3 262 32 261 
3 35 263 264 
3 35 264 33 
3 265 30 33 
3 265 33 264 
3 37 266 267 
3 37 267 38 
3 268 40 38 
3 268 38 267 
3 41 269 270 
3 41 270 39 
3 271 36 39 
3 271 39 270 
3 34 262 272 
3 34 272 42 
3 256 27 42 
3 256 42 272 
3 26 259 273 
3 26 273 43 
3 263 35 43 
3 263 43 273 
3 40 268 274 
3 40 274 44 
3 248 19 44 
3 248 44 274 
3 18 253 275 
3 18 275 45 
3 269 41 45 
3 269 45 275 
3 276 277 278 
3 276 278 279 
3 277 280 281 
3 277 281 278 
3 282 283 284 
3 282 284 285 
3 286 287 288 
3 286 288 289 
3 290 291 292 
3 290 292 293 
3 294 295 296 
3 294 296 297 
3 298 299 300 
3 298 300 301 
3 302 303 304 
3 302 304 305 
3 303 306 307 
3 303 307 304 
3 308 309 310 
3 308 310 311 
3 312 313 314 
3 312 314 315 
3 313 316 317 
3 313 317 314 
3 318 319 314 
3 318 314 317 
3 319 320 315 
3 319 315 314 
3 321 322 323 
3 321 323 324 
3 322 325 326 
3 322 326 323 
3 327 328 323 
3 327 323 326 
3 328 329 324 
3 328 324 323 
3 330 331 332 
3 330 332 333 
3 331 334 335 
3 331 335 332 
3 336 337 332 
3 336 332 335 
3 337 338 333 
3 337 333 332 
3 339 340 341 
3 339 341 342 
3 340 343 344 
3 340 344 341 
3 345 346 341 
3 345 341 344 
3 346 347 342 
3 346 342 341 
3 338 337 348 
3 338 348 349 
3 337 336 350 
3 337 350 348 
3 316 313 348 
3 316 348 350 
3 313 312 349 
3 313 349 348 
3 329 328 351 
3 329 351 352 
3 328 327 353 
3 328 353 351 
3 343 340 351 
3 343 351 353 
3 340 339 352 
3 340 352 351 
3 354 355 356 
3 354 356 357 
3 355 358 359 
3 355 359 356 
3 325 322 356 
3 325 356 359 
3 322 321 357 
3 322 357 356 
3 320 319 360 
3 320 360 361 
3 319 318 362 
3 319 362 360 
3 363 364 360 
3 363 360 362 
3 364 365 361 
3 364 361 360 
3 366 367 368 
3 366 368 369 
3 367 370 371 
3 367 371 368 
3 372 373 368 
3 372 368 371 
3 373 374 369 
3 373 369 368 
3 375 376 377 
3 375 377 378 
3 376 379 380 
3 376 380 377 
3 381 382 377 
3 381 377 380 
3 382 383 378 
3 382 378 377 
3 384 385 386 
3 384 386 387 
3 385 388 389 
3 385 389 386 
3 390 391 386 
3 390 386 389 
3 391 392 387 
3 391 387 386 
3 393 394 395 
3 393 395 396 
3 394 397 398 
3 394 398 395 
3 399 400 395 
3 399 395 398 
3 400 401 396 
3 400 396 395 
3 374 373 402 
3 374 402 403 
3 373 372 404 
3 373 404 402 
3 358 355 402 
3 358 402 404 
3 355 354 403 
3 355 403 402 
3 365 364 405 
3 365 405 406 
3 364 363 407 
3 364 407 405 
3 379 376 405 
3 379 405 407 
3 376 375 406 
3 376 406 405 
3 392 391 408 
3 392 408 409 
3 391 390 410 
3 391 410 408 
3 334 331 408 
3 334 408 410 
3 331 330 409 
3 331 409 408 
3 347 346 411 
3 347 411 412 
3 346 345 413 
3 346 413 411 
3 397 394 411 
3 397 411 413 
3 394 393 412 
3 394 412 411 
3 414 415 416 
3 414 416 417 
3 418 419 420 
3 418 420 421 
3 422 423 424 
3 422 424 425 
3 426 427 428 
3 426 428 429 
3 430 431 432 
3 430 432 433 
3 434 435 436 
3 434 436 437 
3 438 439 440 
3 438 440 441 
3 442 443 444 
3 442 444 445 
3 446 447 448 
3 446 448 449 
3 450 451 452 
3 450 452 453 
3 454 455 456 
3 454 456 457 
3 458 459 460 
3 458 460 461 
3 462 463 464 
3 462 464 465 
3 466 467 468 
3 466 468 469 
3 466 469 470 
3 466 470 471 
3 472 473 474 
3 472 474 475 
3 476 477 478 
3 476 478 479 
3 480 481 482 
3 480 482 483 
3 480 483 484 
3 480 484 485 
3 486 487 488 
3 486 488 489 
3 490 491 492 
3 490 492 493 
3 241 230 233 
3 241 233 238 
3 494 495 496 
3 494 496 497 
3 285 498 499 
3 285 499 282 
3 500 501 502 
3 500 502 503 
3 311 504 505 
3 311 505 308 
3 506 507 508 
3 506 508 509 
3 510 509 508 
3 510 508 511 
3 512 513 514 
3 512 514 515 
3 516 515 514 
3 516 514 517 
3 293 518 519 
3 293 519 290 
3 301 520 521 
3 301 521 298 
3 234 237 522 
3 234 522 523 
3 524 525 526 
3 524 526 527 
3 525 528 529 
3 525 529 526 
3 530 531 532 
3 530 532 533 
3 531 534 535 
3 531 535 532 
3 536 537 0 
3 536 0 3 
3 538 539 523 
3 538 523 522 
3 540 541 542 
3 540 542 543 
3 544 545 543 
3 544 543 542 
3 546 547 548 
3 546 548 549 
3 550 551 549 
3 550 549 548 
3 552 553 554 
3 552 554 555 
3 556 557 558 
3 556 558 559 
3 560 561 562 
3 560 562 563 
3 564 565 566 
3 564 566 567 
3 219 218 568 
3 219 568 569 
3 506 569 568 
3 506 568 507 
3 570 571 572 
3 570 572 573 
3 574 575 576 
3 574 576 577 
3 578 579 580 
3 578 580 581 
3 582 583 584 
3 582 584 585 
3 586 587 588 
3 586 588 589 
3 71 590 591 
3 71 591 72 
3 590 537 536 
3 590 536 591 
3 225 224 592 
3 225 592 593 
3 470 593 592 
3 470 592 471 
3 594 595 596 
3 594 596 597 
3 598 599 600 
3 598 600 601 
3 602 603 604 
3 602 604 605 
3 606 607 608 
3 606 608 609 
3 240 239 610 
3 240 610 611 
3 512 611 610 
3 512 610 513 
3 612 613 614 
3 612 614 615 
3 616 617 618 
3 616 618 619 
3 620 621 622 
3 620 622 623 
3 624 625 626 
3 624 626 627 
3 628 629 630 
3 628 630 631 
3 91 632 633 
3 91 633 92 
3 632 539 538 
3 632 538 633 
3 232 231 634 
3 232 634 635 
3 484 635 634 
3 484 634 485 
3 98 636 637 
3 98 637 99 
3 636 638 639 
3 636 639 637 
3 640 102 637 
3 640 637 639 
3 99 637 102 
3 103 153 104 
3 153 244 243 
3 153 243 104 
3 242 641 104 
3 242 104 243 
3 641 94 97 
3 641 97 104 
3 109 642 643 
3 109 643 110 
3 642 644 645 
3 642 645 643 
3 646 647 643 
3 646 643 645 
3 647 111 110 
3 647 110 643 
3 113 648 649 
3 113 649 108 
3 648 247 246 
3 648 246 649 
3 245 650 649 
3 245 649 246 
3 650 105 108 
3 650 108 649 
3 118 651 652 
3 118 652 119 
3 651 653 654 
3 651 654 652 
3 655 656 652 
3 655 652 654 
3 656 120 119 
3 656 119 652 
3 122 657 658 
3 122 658 117 
3 657 250 249 
3 657 249 658 
3 248 659 658 
3 248 658 249 
3 659 114 117 
3 659 117 658 
3 129 142 130 
3 142 660 661 
3 142 661 130 
3 662 133 130 
3 662 130 661 
3 126 130 133 
3 134 209 135 
3 209 253 252 
3 209 252 135 
3 251 128 135 
3 251 135 252 
3 127 135 128 
3 120 656 663 
3 120 663 138 
3 656 655 664 
3 656 664 663 
3 638 636 663 
3 638 663 664 
3 636 98 138 
3 636 138 663 
3 94 641 665 
3 94 665 137 
3 641 242 254 
3 641 254 665 
3 250 657 665 
3 250 665 254 
3 657 122 137 
3 657 137 665 
3 111 647 666 
3 111 666 141 
3 647 646 667 
3 647 667 666 
3 660 142 666 
3 660 666 667 
3 141 666 142 
3 124 128 143 
3 128 251 255 
3 128 255 143 
3 247 648 143 
3 247 143 255 
3 648 113 140 
3 648 140 143 
3 148 668 669 
3 148 669 149 
3 668 670 671 
3 668 671 669 
3 644 642 669 
3 644 669 671 
3 642 109 149 
3 642 149 669 
3 105 650 672 
3 105 672 147 
3 650 245 257 
3 650 257 672 
3 256 673 672 
3 256 672 257 
3 673 144 147 
3 673 147 672 
3 100 102 154 
3 102 640 674 
3 102 674 154 
3 675 157 154 
3 675 154 674 
3 151 154 157 
3 158 199 159 
3 199 259 258 
3 199 258 159 
3 244 153 159 
3 244 159 258 
3 152 159 153 
3 164 201 676 
3 164 676 165 
3 201 677 678 
3 201 678 676 
3 679 680 676 
3 679 676 678 
3 680 166 165 
3 680 165 676 
3 168 681 682 
3 168 682 163 
3 681 265 264 
3 681 264 682 
3 263 683 682 
3 263 682 264 
3 683 160 163 
3 683 163 682 
3 173 684 685 
3 173 685 174 
3 684 686 687 
3 684 687 685 
3 688 689 685 
3 688 685 687 
3 689 175 174 
3 689 174 685 
3 177 690 691 
3 177 691 172 
3 690 262 261 
3 690 261 691 
3 260 692 691 
3 260 691 261 
3 692 169 172 
3 692 172 691 
3 182 211 693 
3 182 693 183 
3 211 694 695 
3 211 695 693 
3 696 697 693 
3 696 693 695 
3 697 184 183 
3 697 183 693 
3 186 698 699 
3 186 699 181 
3 698 271 270 
3 698 270 699 
3 269 700 699 
3 269 699 270 
3 700 178 181 
3 700 181 699 
3 191 701 702 
3 191 702 192 
3 701 703 704 
3 701 704 702 
3 705 706 702 
3 705 702 704 
3 706 193 192 
3 706 192 702 
3 195 707 708 
3 195 708 190 
3 707 268 267 
3 707 267 708 
3 266 709 708 
3 266 708 267 
3 709 187 190 
3 709 190 708 
3 155 157 200 
3 157 675 710 
3 157 710 200 
3 677 201 200 
3 677 200 710 
3 197 200 201 
3 160 683 202 
3 683 263 273 
3 683 273 202 
3 259 199 202 
3 259 202 273 
3 198 202 199 
3 175 689 711 
3 175 711 205 
3 689 688 712 
3 689 712 711 
3 670 668 711 
3 670 711 712 
3 668 148 205 
3 668 205 711 
3 144 673 713 
3 144 713 204 
3 673 256 272 
3 673 272 713 
3 262 690 713 
3 262 713 272 
3 690 177 204 
3 690 204 713 
3 131 133 210 
3 133 662 714 
3 133 714 210 
3 694 211 210 
3 694 210 714 
3 207 210 211 
3 178 700 212 
3 700 269 275 
3 700 275 212 
3 253 209 212 
3 253 212 275 
3 208 212 209 
3 193 706 715 
3 193 715 215 
3 706 705 716 
3 706 716 715 
3 653 651 715 
3 653 715 716 
3 651 118 215 
3 651 215 715 
3 114 659 717 
3 114 717 214 
3 659 248 274 
3 659 274 717 
3 268 707 717 
3 268 717 274 
3 707 195 214 
3 707 214 717 
3 718 719 720 
3 718 720 721 
3 722 723 724 
3 722 724 725 
3 726 727 728 
3 726 728 729 
3 730 731 732 
3 730 732 733 
3 734 735 736 
3 734 736 737 
3 738 739 740 
3 738 740 741 
3 742 743 744 
3 742 744 745 
3 746 747 748 
3 746 748 749 
3 750 751 752 
3 750 752 753 
3 754 755 756 
3 754 756 757 
3 758 759 760 
3 758 760 761 
3 762 763 764 
3 762 764 765 
3 766 767 768 
3 766 768 769 
3 770 771 772 
3 770 772 773 
3 774 775 776 
3 774 776 777 
3 778 779 780 
3 778 780 781 
3 782 783 784 
3 782 784 785 
3 786 787 788 
3 786 788 789 
3 790 791 792 
3 790 792 793 
3 790 793 468 
3 790 468 467 
3 794 795 796 
3 794 796 797 
3 798 799 800 
3 798 800 801 
3 802 803 804 
3 802 804 805 
3 806 807 808 
3 806 808 809 
3 810 811 812 
3 810 812 813 
3 810 813 482 
3 810 482 481 
3 814 815 816 
3 814 816 817 
3 818 819 820 
3 818 820 821 
3 510 511 822 
3 510 822 823 
3 824 823 822 
3 824 822 825 
3 516 517 826 
3 516 826 827 
3 828 827 826 
3 828 826 829 
3 528 830 831 
3 528 831 529 
3 830 832 833 
3 830 833 831 
3 216 834 835 
3 216 835 217 
3 834 524 527 
3 834 527 835 
3 534 836 837 
3 534 837 535 
3 836 838 839 
3 836 839 837 
3 235 840 841 
3 235 841 236 
3 840 530 533 
3 840 533 841 
3 842 843 844 
3 842 844 845 
3 846 847 848 
3 846 848 849 
3 850 851 852 
3 850 852 853 
3 854 855 856 
3 854 856 857 
3 858 859 860 
3 858 860 861 
3 862 863 864 
3 862 864 865 
3 866 867 868 
3 866 868 869 
3 870 871 872 
3 870 872 873 
3 874 875 876 
3 874 876 877 
3 878 879 880 
3 878 880 881 
3 882 883 884 
3 882 884 885 
3 886 887 888 
3 886 888 889 
3 890 891 892 
3 890 892 893 
3 894 895 896 
3 894 896 897 
3 898 899 900 
3 898 900 901 
3 902 903 904 
3 902 904 905 
3 906 907 908 
3 906 908 909 
3 910 911 912 
3 910 912 913 
3 914 915 916 
3 914 916 917 
3 918 919 920 
3 918 920 921 
3 922 923 924 
3 922 924 925 
3 926 927 928 
3 926 928 929 
3 930 931 932 
3 930 932 933 
3 934 935 936 
3 934 936 937 
3 938 939 940 
3 938 940 941 
3 942 943 944 
3 942 944 945 
3 946 947 948 
3 946 948 949 
3 950 951 952 
3 950 952 953 
3 954 955 956 
3 954 956 957 
3 958 959 960 
3 958 960 961 
3 962 963 964 
3 962 964 965 
3 966 967 968 
3 966 968 969 
3 970 971 972 
3 970 972 973 
3 974 975 976 
3 974 976 977 
3 978 979 980 
3 978 980 981 
3 982 983 984 
3 982 984 985 
3 986 987 988 
3 986 988 989 
3 990 991 992 
3 990 992 993 
3 544 542 367 
3 544 367 366 
3 542 541 370 
3 542 370 367 
3 832 830 680 
3 832 680 679 
3 830 528 166 
3 830 166 680 
3 528 525 167 
3 528 167 166 
3 525 524 168 
3 525 168 167 
3 524 834 681 
3 524 681 168 
3 834 216 265 
3 834 265 681 
3 216 1 30 
3 216 30 265 
3 1 0 31 
3 1 31 30 
3 0 537 260 
3 0 260 31 
3 537 590 692 
3 537 692 260 
3 590 71 169 
3 590 169 692 
3 71 70 170 
3 71 170 169 
3 70 994 173 
3 70 173 170 
3 994 587 684 
3 994 684 173 
3 587 586 686 
3 587 686 684 
3 280 277 382 
3 280 382 381 
3 277 276 383 
3 277 383 382 
3 550 548 385 
3 550 385 384 
3 548 547 388 
3 548 388 385 
3 838 836 697 
3 838 697 696 
3 836 534 184 
3 836 184 697 
3 534 531 185 
3 534 185 184 
3 531 530 186 
3 531 186 185 
3 530 840 698 
3 530 698 186 
3 840 235 271 
3 840 271 698 
3 235 234 36 
3 235 36 271 
3 234 523 37 
3 234 37 36 
3 523 539 266 
3 523 266 37 
3 539 632 709 
3 539 709 266 
3 632 91 187 
3 632 187 709 
3 91 90 188 
3 91 188 187 
3 90 995 191 
3 90 191 188 
3 995 629 701 
3 995 701 191 
3 629 628 703 
3 629 703 701 
3 306 303 400 
3 306 400 399 
3 303 302 401 
3 303 401 400 
3 629 995 996 
3 629 996 630 
3 90 93 996 
3 90 996 995 
3 551 997 998 
3 551 998 549 
3 999 546 549 
3 999 549 998 
3 837 839 1000 
3 837 1000 1001 
3 535 837 1001 
3 535 1001 1002 
3 532 535 1002 
3 532 1002 1003 
3 533 532 1003 
3 533 1003 1004 
3 841 533 1004 
3 841 1004 1005 
3 236 841 1005 
3 236 1005 1006 
3 237 236 1006 
3 237 1006 1007 
3 522 237 1007 
3 522 1007 1008 
3 1009 538 522 
3 1009 522 1008 
3 633 538 1009 
3 633 1009 1010 
3 92 633 1010 
3 92 1010 1011 
3 93 92 1011 
3 93 1011 1012 
3 996 93 1012 
3 996 1012 1013 
3 630 996 1013 
3 630 1013 1014 
3 631 630 1014 
3 631 1014 1015 
3 304 307 1016 
3 304 1016 1017 
3 305 304 1017 
3 305 1017 1018 
3 997 520 301 
3 997 301 998 
3 300 999 998 
3 300 998 301 
3 1001 1000 829 
3 1001 829 826 
3 1002 1001 826 
3 1002 826 517 
3 1003 1002 517 
3 1003 517 514 
3 1004 1003 514 
3 1004 514 513 
3 1005 1004 513 
3 1005 513 610 
3 1006 1005 610 
3 1006 610 239 
3 1007 1006 239 
3 1007 239 238 
3 1008 1007 238 
3 1008 238 233 
3 232 1009 1008 
3 232 1008 233 
3 1010 1009 232 
3 1010 232 635 
3 1011 1010 635 
3 1011 635 484 
3 1012 1011 484 
3 1012 484 483 
3 1013 1012 483 
3 1013 483 482 
3 1014 1013 482 
3 1014 482 813 
3 1015 1014 813 
3 1015 813 812 
3 1017 1016 309 
3 1017 309 308 
3 1018 1017 308 
3 1018 308 505 
3 545 518 293 
3 545 293 543 
3 292 540 543 
3 292 543 293 
3 831 833 825 
3 831 825 822 
3 529 831 822 
3 529 822 511 
3 526 529 511 
3 526 511 508 
3 527 526 508 
3 527 508 507 
3 835 527 507 
3 835 507 568 
3 217 835 568 
3 217 568 218 
3 2 217 218 
3 2 218 7 
3 3 2 7 
3 3 7 6 
3 225 536 3 
3 225 3 6 
3 591 536 225 
3 591 225 593 
3 72 591 593 
3 72 593 470 
3 73 72 470 
3 73 470 469 
3 589 588 793 
3 589 793 792 
3 278 281 283 
3 278 283 282 
3 279 278 282 
3 279 282 499 
3 994 1019 588 
3 994 588 587 
3 588 1019 468 
3 588 468 793 
3 70 73 1019 
3 70 1019 994 
3 468 1019 73 
3 468 73 469 
